<svg xmlns="http://www.w3.org/2000/svg" xmlns:xlink="http://www.w3.org/1999/xlink" width="158" height="36.883" viewBox="0 0 158 36.883"><defs><style>.a,.b{fill:none;}.b{clip-rule:evenodd;}.c{clip-path:url(#a);}.d{clip-path:url(#b);}.e,.j,.k{fill:#093a51;}.f{clip-path:url(#c);}.g{clip-path:url(#e);}.h{fill:#4bb06c;}.i{clip-path:url(#g);}.j{fill-rule:evenodd;}.k{font-size:12px;font-family:Hind-Medium, Hind;font-weight:500;}</style><clipPath id="a"><path class="a" d="M287.1,596.273a10.289,10.289,0,0,0-20.274,0h5.263a5.139,5.139,0,0,1,9.749,0Z" transform="translate(-266.827 -587.746)"/></clipPath><clipPath id="b"><rect class="a" width="242.553" height="161.07"/></clipPath><clipPath id="c"><path class="a" d="M283.516,584.614l-1.925.9a5.16,5.16,0,1,1-1.219-1.652l.009,0A2.683,2.683,0,0,0,283.516,584.614Zm.486-4.647a10.329,10.329,0,1,0,2.426,3.29l-2.775,1.292a2.676,2.676,0,0,0,1.228-3.528A2.646,2.646,0,0,0,284,579.968Z" transform="translate(-266.737 -577.292)"/></clipPath><clipPath id="e"><path class="b" d="M287.1,596.273a10.289,10.289,0,0,0-20.274,0h5.263a5.139,5.139,0,0,1,9.749,0Z" transform="translate(-266.827 -587.746)"/></clipPath><clipPath id="g"><path class="b" d="M283.516,584.614l-1.925.9a5.16,5.16,0,1,1-1.219-1.652l.009,0A2.683,2.683,0,0,0,283.516,584.614Zm.486-4.647a10.329,10.329,0,1,0,2.426,3.29l-2.775,1.292a2.676,2.676,0,0,0,1.228-3.528A2.646,2.646,0,0,0,284,579.968Z" transform="translate(-266.737 -577.292)"/></clipPath></defs><g transform="translate(2384 152.883)"><g transform="translate(-2650.737 -730.176)"><g transform="translate(266.737 577.292)"><g transform="translate(0.193 22.363)"><g class="c"><g transform="translate(-28.615 -89.063)"><g class="d"><rect class="e" width="22.171" height="10.422" transform="translate(27.666 88.115)"/></g></g></g></g><g class="f"><g transform="translate(-28.422 -66.699)"><g class="d"><rect class="e" width="22.55" height="22.55" transform="translate(23.768 71.576) rotate(-25)"/></g></g></g><g transform="translate(0.193 22.363)"><g class="g"><g transform="translate(-28.615 -89.063)"><g class="d"><rect class="h" width="22.171" height="10.422" transform="translate(27.666 88.115)"/></g></g></g></g><g class="i"><g transform="translate(-28.422 -66.699)"><g class="d"><rect class="h" width="22.55" height="22.55" transform="translate(23.768 71.576) rotate(-25)"/></g></g></g></g><g transform="translate(296.957 577.421)"><path class="j" d="M337.243,580.171l3.13,7.589h.636l3.13-7.589h3.793l-3.819,9.022v.478l3.819,9.075h-3.793l-3.13-7.642h-.636l-3.13,7.642H333.45l3.819-9.075v-.478l-3.819-9.022Z" transform="translate(-220.95 -580.141)"/><path class="j" d="M328.937,580.171h3.5v18.575h-3.5V580.171Z" transform="translate(-226.092 -580.141)"/><path class="j" d="M320.471,580.157h11.918v3.354h-8.407v4.259h8.247v3.354h-8.247v7.666h-3.512Z" transform="translate(-235.737 -580.157)"/><path class="j" d="M308.784,598.726v-18.55h5.776l3.607,14.568h.106l3.54-14.568h5.8v18.55h-3.407v-14.7H324.1l-3.793,14.7H316.09l-3.793-14.7h-.106v14.7Z" transform="translate(-249.053 -580.135)"/><path class="j" d="M309.709,580.157h-6.6l-4.443,18.633h3.671l.9-3.992h6.332l.9,3.992h3.673Zm-5.72,11.287,2.182-9.531h.479l2.154,9.531Z" transform="translate(-260.578 -580.157)"/><path class="j" d="M290.124,580.163h11.744v3.35h-8.236v4.253h7.918v3.35h-7.918v4.307h8.555v3.349H290.124Z" transform="translate(-270.312 -580.15)"/><path class="j" d="M290.826,585.99a2.5,2.5,0,0,0-.83-1.865,3.251,3.251,0,0,0-2.338-.792,3.442,3.442,0,0,0-2.017.522,1.653,1.653,0,0,0-.74,1.42,1.912,1.912,0,0,0,.178.83,1.731,1.731,0,0,0,.627.665,4.827,4.827,0,0,0,1.174.524,16.058,16.058,0,0,0,1.853.434,9.448,9.448,0,0,1,4.291,1.711,4.305,4.305,0,0,1,1.483,3.553v.306a5.543,5.543,0,0,1-.447,2.263,4.76,4.76,0,0,1-1.29,1.724,5.864,5.864,0,0,1-2.045,1.1,9.838,9.838,0,0,1-5.81-.116,6.184,6.184,0,0,1-2.236-1.38,5.8,5.8,0,0,1-1.354-2.071,7.134,7.134,0,0,1-.46-2.593v-.768h3.372v.614a3.534,3.534,0,0,0,.933,2.569,3.9,3.9,0,0,0,2.9.958,3.323,3.323,0,0,0,2.272-.665,2.06,2.06,0,0,0,.742-1.585,2.268,2.268,0,0,0-.154-.83,1.761,1.761,0,0,0-.537-.717,3.7,3.7,0,0,0-1.046-.573,9.176,9.176,0,0,0-1.688-.436,17.033,17.033,0,0,1-2.477-.6,6.912,6.912,0,0,1-1.953-.984,4.282,4.282,0,0,1-1.292-1.534,5.013,5.013,0,0,1-.458-2.251v-.152a4.613,4.613,0,0,1,.447-2.032,4.9,4.9,0,0,1,1.251-1.624,5.789,5.789,0,0,1,1.94-1.074,7.967,7.967,0,0,1,2.541-.383,8.19,8.19,0,0,1,2.811.447,6.007,6.007,0,0,1,2.056,1.215,5.078,5.078,0,0,1,1.254,1.763,5.342,5.342,0,0,1,.421,2.1v.92h-3.374Z" transform="translate(-280.863 -580.15)"/></g></g><text class="k" transform="translate(-2312 -123)"><tspan x="0" y="0">Intelligence Hub</tspan></text></g></svg>