<svg xmlns="http://www.w3.org/2000/svg" width="28" height="28" viewBox="0 0 28 28"><defs><style>.a{fill:#fff;}</style></defs><g transform="translate(34.4 -6.4) rotate(90)"><g transform="translate(6.4 6.4)"><path class="a" d="M20.4,34.4a14,14,0,1,0-14-14A14.012,14.012,0,0,0,20.4,34.4Zm0-26.024A12.024,12.024,0,1,1,8.376,20.4,12.042,12.042,0,0,1,20.4,8.376Z" transform="translate(-6.4 -6.4)"/><path class="a" d="M50.2,47.573a1.048,1.048,0,0,0,.728.278,1.093,1.093,0,0,0,.728-.278l6.623-6.124a.9.9,0,0,0,0-1.345l-6.623-6.124a1.09,1.09,0,0,0-1.455,0,.9.9,0,0,0,0,1.346l5.9,5.452-5.9,5.452A.9.9,0,0,0,50.2,47.573Z" transform="translate(-39.601 -26.851)"/></g></g></svg>